<?xml version="1.0" encoding="utf-8"?>
<svg version="1.1" xmlns="http://www.w3.org/2000/svg" xmlns:xlink="http://www.w3.org/1999/xlink" height="50px" width="50px" x="0px" y="0px" fill="#fb923c" viewBox="0 0 1000 1000" enable-background="new 0 0 1000 1000" xml:space="preserve">
<g><path d="M335.6,541.4c54.8,75.3,138.8,81.1,163.2,81.1h2.3c24.4,0,108.4-5.8,163.2-81.1c21.6-29.6,43.5-83.3,53.1-108c32.5-38.8,44.8-75.6,36.6-109.6c-4.1-17.1-13.4-32.1-26.1-43.1c5.1-41.2,4.8-87.8-10.1-128.7c-21.2-58.1-59.5-99.2-113.8-122c-42.7-18-83.3-19.9-98.7-19.9h-2.3c-1.2,0-2.2,0-3.1,0c-0.8,0-1.9,0-3.1,0h-2.3c-15.4,0-56,1.9-98.7,19.9c-54.3,22.8-92.6,63.9-113.8,122c-14.9,41-15.2,87.6-10.1,128.7c-12.7,11-22,26-26.1,43.1c-8.2,34,4.1,70.8,36.6,109.6C292.1,458.1,314.1,511.8,335.6,541.4z M317.3,323.9c17.8-6.7,29.7,19.8,34,31.6c-4.9-15.2-18.4-60.5-20.6-108.1c16-22.4,47.9-59.8,85.8-65.9c0,0,81.8,97.9,250.1,96c-4.8,35.6-13.9,66.1-17.8,78.1c4.3-11.8,16.3-38.3,34-31.6c10.7,4,28.8,25.4-18.7,77.5c0,0-27.1,73.6-49.2,103.9c-32.6,44.7-83.2,55.9-113.7,55.9c-0.3,0-0.7,0-1.1-0.1c-0.5,0-0.9,0.1-1.1,0.1c-30.5,0-81.1-11.2-113.7-55.9c-22.1-30.3-49.2-103.9-49.2-103.9C288.4,349.4,306.5,327.9,317.3,323.9z"/><path d="M562.3,684.2l-28.4-31H500h-33.8l-28.4,31c0,0,16.2,34.6,42.6,48.1L437.7,840c0,0,31.2,44.4,62.3,55.9c31.1-11.4,62.3-55.9,62.3-55.9l-42.6-107.7C546,718.8,562.3,684.2,562.3,684.2z"/><path d="M943.2,766.1C891.6,700,661.7,653.1,661.7,653.1C692.1,827.9,500,934.2,500,934.2S307.9,827.9,338.3,653.1c0,0-229.9,46.8-281.5,112.9c-54.7,70-48.3,139.1-44.2,168c4.1,28.9,11.2,46.4,57.8,56h859.2c46.7-9.6,53.8-27.1,57.8-56C991.5,905.2,997.9,836.1,943.2,766.1z"/></g>
</svg>