<?xml version="1.0"?>
<svg xmlns="http://www.w3.org/2000/svg" viewBox="0 0 64 64" height="800px" width="800px">
    <path d="M 54.945312 0 C 53.665312 -0.00125 52.385156 0.48398438 51.410156 1.4589844 L 48.580078 4.2890625 L 48.570312 4.2988281 L 45.539062 7.3398438 C 45.529063 7.3498437 45.519766 7.349375 45.509766 7.359375 C 45.499766 7.369375 45.490469 7.3884375 45.480469 7.3984375 L 37.560547 15.349609 L 20.050781 8.3398438 C 19.390781 8.0798438 18.660234 8.0592969 17.990234 8.2792969 L 2.0507812 13.599609 C 0.82078125 13.999609 0 15.149453 0 16.439453 L 0 55.609375 C 0 56.249375 0.31007813 56.858281 0.83007812 57.238281 C 1.3500781 57.608281 2.0208594 57.709766 2.6308594 57.509766 L 18.619141 52.179688 C 18.839141 52.109687 19.090547 52.109219 19.310547 52.199219 L 37.900391 59.638672 C 38.250391 59.778672 38.629766 59.849609 39.009766 59.849609 C 39.379766 59.849609 39.749609 59.778437 40.099609 59.648438 L 56.089844 53.429688 C 57.249844 52.979687 58 51.878906 58 50.628906 L 58 17.509766 L 59.890625 15.609375 L 62.720703 12.779297 C 64.670703 10.829297 64.670703 7.6589844 62.720703 5.7089844 L 58.480469 1.4589844 C 57.505469 0.48898437 56.225313 0.00125 54.945312 0 z M 54.939453 2.0019531 C 55.706953 2.0019531 56.475547 2.2939063 57.060547 2.8789062 L 61.300781 7.1191406 C 62.470781 8.2891406 62.470781 10.189375 61.300781 11.359375 L 59.179688 13.488281 L 55.289062 9.5996094 L 50.699219 4.9980469 L 52.820312 2.8789062 C 53.405313 2.2939063 54.171953 2.0019531 54.939453 2.0019531 z M 49.289062 6.4199219 L 56 13.128906 L 57.769531 14.898438 L 56.119141 16.558594 L 56 16.439453 L 52.410156 12.859375 L 50.869141 11.308594 L 47.630859 8.078125 L 49.289062 6.4199219 z M 46.220703 9.4882812 L 48.830078 12.099609 L 50.369141 13.648438 L 53.039062 16.308594 L 53.699219 16.978516 L 54.699219 17.978516 L 54 18.679688 L 52 20.689453 L 42.050781 30.669922 L 41.599609 26.298828 C 41.549609 25.788828 41.119375 25.408203 40.609375 25.408203 L 38.779297 25.408203 L 38.779297 23.988281 L 40.140625 22.628906 L 43.660156 19.109375 L 44.140625 18.628906 C 44.530625 18.238906 44.530625 17.598984 44.140625 17.208984 C 43.750625 16.818984 43.120469 16.818984 42.730469 17.208984 L 39.029297 20.908203 L 37.470703 22.46875 L 37.410156 22.529297 L 33.619141 22.128906 L 34.480469 21.269531 L 36.019531 19.728516 L 38.050781 17.689453 L 40.320312 15.408203 L 46.220703 9.4882812 z M 18.964844 10.128906 C 19.082344 10.131406 19.200547 10.154219 19.310547 10.199219 L 36.019531 16.888672 L 34 18.919922 L 19.710938 13.208984 C 19.270937 13.028984 18.779844 13.019922 18.339844 13.169922 L 5.3691406 17.488281 C 4.5491406 17.758281 4 18.528672 4 19.388672 L 4 49.279297 C 4 49.919297 4.3100781 50.528437 4.8300781 50.898438 C 5.3500781 51.278438 6.0208594 51.379687 6.6308594 51.179688 L 17.369141 47.599609 C 17.889141 47.419609 18.17 46.858125 18 46.328125 C 17.82 45.808125 17.260469 45.529219 16.730469 45.699219 L 6 49.279297 L 6 19.388672 L 18.970703 15.058594 L 32.460938 20.458984 L 30.740234 22.189453 C 30.580234 22.349453 30.479219 22.559297 30.449219 22.779297 L 29.720703 29.089844 L 29.009766 34.039062 C 28.969766 34.349063 29.069063 34.668672 29.289062 34.888672 C 29.479063 35.078672 29.74 35.179687 30 35.179688 C 30.05 35.179688 30.090625 35.179922 30.140625 35.169922 L 35.089844 34.46875 L 41.449219 33.789062 C 41.679219 33.769062 41.890781 33.668047 42.050781 33.498047 L 52 23.519531 L 52 47.869141 L 39.679688 52.658203 C 39.169688 52.858203 38.909375 53.438984 39.109375 53.958984 C 39.269375 54.348984 39.639062 54.589844 40.039062 54.589844 C 40.169063 54.589844 40.290156 54.569297 40.410156 54.529297 L 52.720703 49.738281 C 53.500703 49.428281 54 48.699141 54 47.869141 L 54 21.519531 L 56 19.509766 L 56 50.628906 C 56 51.038906 55.739375 51.418594 55.359375 51.558594 L 39.369141 57.779297 C 39.139141 57.869297 38.880625 57.869297 38.640625 57.779297 L 20.050781 50.339844 C 19.700781 50.199844 19.319453 50.128906 18.939453 50.128906 C 18.619453 50.128906 18.300234 50.179297 17.990234 50.279297 L 2 55.609375 L 2 16.439453 C 2 16.009453 2.2696875 15.628281 2.6796875 15.488281 L 18.619141 10.179688 C 18.729141 10.144687 18.847344 10.126406 18.964844 10.128906 z M 20.855469 18.998047 C 20.576094 19.005922 20.300875 19.076484 20.046875 19.208984 C 19.175875 19.656984 18.620391 19.95675 18.275391 20.21875 C 17.718391 20.23975 16.378766 20.202484 15.259766 20.146484 C 14.868766 20.127484 14.493406 20.343219 14.316406 20.699219 C 14.232406 20.867219 14.119344 21.109047 14.027344 21.373047 C 13.925344 21.372047 13.825141 21.370141 13.744141 21.369141 C 12.973141 21.356141 12.231406 21.343172 11.941406 22.076172 C 11.856406 22.293172 11.847297 22.525328 11.904297 22.736328 C 11.702297 22.666328 11.489391 22.628906 11.275391 22.628906 L 9.1699219 22.628906 C 8.6999219 22.628906 8.2503906 22.801234 7.9003906 23.115234 L 6.9433594 23.976562 C 6.2553594 24.593563 6.1122812 25.610156 6.6132812 26.410156 C 6.8822813 26.841156 7.3038281 27.140859 7.7988281 27.255859 C 8.2898281 27.369859 8.8004219 27.284625 9.2324219 27.015625 L 9.3808594 26.921875 L 9.9785156 27.257812 L 10.308594 27.548828 L 10.308594 29.214844 C 10.308594 30.001844 10.805063 30.714281 11.539062 30.988281 L 12.117188 31.193359 L 12.886719 32.089844 C 13.088719 32.323844 13.348672 32.508094 13.638672 32.621094 L 15.429688 33.318359 L 14.722656 34.496094 C 14.460656 34.931094 14.384813 35.442547 14.507812 35.935547 L 14.701172 36.712891 C 14.800172 37.104891 15.016172 37.447078 15.326172 37.705078 L 15.949219 38.205078 L 16.5 39.689453 L 16.167969 42.851562 C 16.134969 43.162562 16.248562 43.469594 16.476562 43.683594 C 16.663563 43.860594 16.909109 43.955078 17.162109 43.955078 C 17.217109 43.955078 17.271172 43.950406 17.326172 43.941406 C 17.870172 43.851406 18.693781 43.714312 19.050781 43.195312 C 19.096781 43.172312 19.147313 43.148953 19.195312 43.126953 C 19.674312 42.897953 20.027453 42.497 20.189453 42 C 20.498453 41.052 20.596906 40.680281 20.628906 40.488281 C 20.720906 40.289281 20.984453 39.854766 21.064453 39.759766 L 21.951172 38.873047 C 22.123172 38.700047 22.318609 38.504656 22.724609 36.722656 C 22.757609 36.584656 22.773437 36.445922 22.773438 36.294922 L 22.773438 34.992188 C 22.773438 34.483187 22.574797 34.006391 22.216797 33.650391 L 22.035156 33.46875 C 21.678156 33.10975 21.200406 32.910156 20.691406 32.910156 L 19.996094 32.931641 L 19.417969 32.509766 C 19.526969 32.342766 19.585078 32.1445 19.580078 31.9375 C 19.571078 31.5785 19.371688 31.250078 19.054688 31.080078 L 18.542969 30.804688 L 18.789062 30.228516 C 18.872062 30.034516 18.892656 29.820187 18.847656 29.617188 L 19.730469 29.216797 C 19.939469 29.122797 20.127016 28.991125 20.291016 28.828125 L 20.736328 28.384766 C 21.239328 27.881766 21.408844 27.149094 21.214844 26.496094 C 21.248844 26.494094 21.283359 26.490328 21.318359 26.486328 L 22.076172 26.392578 C 22.576172 26.330578 22.951172 25.904391 22.951172 25.400391 L 22.951172 24.523438 C 23.021172 24.393438 23.158422 24.158891 23.357422 23.837891 L 23.652344 23.652344 C 24.145344 23.344344 24.466203 22.838766 24.533203 22.259766 C 24.600203 21.680766 24.401234 21.113172 23.990234 20.701172 L 23.306641 20.023438 C 23.142641 19.859437 22.952328 19.727859 22.736328 19.630859 L 21.681641 19.162109 C 21.417141 19.044109 21.134844 18.990172 20.855469 18.998047 z M 20.871094 20.990234 L 21.892578 21.4375 L 22.482422 22.027344 L 22.292969 22.146484 C 22.058969 22.293484 21.862937 22.48675 21.710938 22.71875 C 21.193938 23.51475 21.022703 23.858375 20.970703 24.109375 L 20.833984 23.798828 C 20.696984 23.492828 20.480031 23.227297 20.207031 23.029297 C 19.812031 22.744297 19.271781 22.784047 18.925781 23.123047 L 18.414062 23.621094 C 18.352062 23.682094 18.297906 23.750219 18.253906 23.824219 L 17.722656 24.710938 C 17.689656 24.765937 17.661625 24.822812 17.640625 24.882812 C 17.366625 25.636813 17.130125 26.288156 17.703125 26.785156 C 18.015125 27.056156 18.475797 27.104109 18.841797 26.912109 C 18.940797 26.860109 19.02475 26.821969 19.09375 26.792969 C 19.14075 26.854969 19.196672 26.93325 19.263672 27.03125 L 18.90625 27.396484 L 17.103516 28.214844 C 16.856516 28.326844 16.664219 28.535016 16.574219 28.791016 C 16.484219 29.047016 16.502047 29.328312 16.623047 29.570312 L 16.75 29.824219 L 16.59375 29.773438 C 16.10575 29.609437 15.565375 29.847219 15.359375 30.324219 C 15.239375 30.601219 15.254906 30.906156 15.378906 31.160156 L 14.40625 30.787109 L 13.640625 29.890625 C 13.431625 29.646625 13.160234 29.458609 12.865234 29.349609 L 12.310547 29.140625 L 12.310547 27.546875 C 12.310547 27.040875 12.115859 26.565125 11.755859 26.203125 L 11.388672 25.835938 C 11.270672 25.719938 11.139187 25.619156 10.992188 25.535156 L 10.322266 25.152344 C 9.8432656 24.879344 9.2784844 24.832906 8.7714844 25.003906 L 9.171875 24.626953 L 11.230469 24.615234 L 12.339844 25.171875 C 13.200844 25.602875 14.248828 24.494484 14.548828 24.146484 C 14.737828 23.924484 14.827734 23.618172 14.802734 23.326172 C 15.087734 23.276172 15.33125 23.176469 15.53125 22.980469 C 15.74125 22.774469 15.857469 22.500094 15.855469 22.246094 C 15.858469 22.228094 15.863094 22.205734 15.871094 22.177734 C 18.984094 22.316734 19.137406 22.172813 19.441406 21.882812 C 19.475406 21.850812 19.506156 21.815344 19.535156 21.777344 C 19.698156 21.669344 20.114094 21.416234 20.871094 20.990234 z M 32.320312 24.009766 L 36.779297 24.478516 L 36.779297 26.408203 C 36.779297 26.958203 37.229297 27.408203 37.779297 27.408203 L 39.710938 27.408203 L 40.169922 31.919922 L 35.320312 32.429688 L 31.759766 28.869141 L 32.320312 24.009766 z M 26.431641 30.712891 C 25.877641 30.639891 25.385219 31.04575 25.324219 31.59375 L 25.019531 34.279297 C 24.738531 34.707297 24.633328 35.232047 24.736328 35.748047 L 24.902344 36.576172 C 25.048344 37.304172 25.581922 37.882938 26.294922 38.085938 L 26.931641 38.267578 C 27.109641 38.319578 27.292516 38.345703 27.478516 38.345703 L 27.994141 38.345703 L 28.070312 38.447266 L 28.070312 39.664062 C 28.070312 39.901063 28.112313 40.135469 28.195312 40.355469 L 28.621094 41.494141 C 28.737094 41.802141 28.929594 42.077828 29.183594 42.298828 L 30.337891 43.287109 C 30.518891 43.442109 30.748328 43.527344 30.986328 43.527344 L 31.947266 43.527344 C 32.175266 43.527344 32.394266 43.449641 32.572266 43.306641 C 32.873266 43.066641 33.594641 42.484437 33.806641 42.273438 C 33.995641 42.083438 34.347656 41.730531 34.097656 40.144531 L 34.097656 39.427734 L 34.408203 38.496094 L 34.761719 37.792969 C 35.007719 37.298969 34.8075 36.698172 34.3125 36.451172 C 33.8195 36.206172 33.218703 36.404438 32.970703 36.898438 L 32.585938 37.666016 C 32.564937 37.708016 32.54625 37.751875 32.53125 37.796875 L 32.148438 38.947266 C 32.114438 39.050266 32.095703 39.156672 32.095703 39.263672 L 32.095703 40.222656 C 32.095703 40.277656 32.100375 40.332719 32.109375 40.386719 C 32.145375 40.605719 32.171687 40.862969 32.179688 41.042969 C 32.024687 41.172969 31.809797 41.349391 31.591797 41.525391 L 31.353516 41.525391 L 30.490234 40.789062 L 30.066406 39.662109 L 30.066406 38.111328 C 30.066406 37.894328 29.997187 37.685719 29.867188 37.511719 L 29.291016 36.742188 C 29.103016 36.491188 28.805234 36.34375 28.490234 36.34375 L 27.482422 36.34375 L 26.861328 36.183594 L 26.6875 35.380859 C 26.8475 35.220859 26.947656 35.010156 26.972656 34.785156 L 27.310547 31.818359 C 27.372547 31.269359 26.980641 30.774891 26.431641 30.712891 z M 17.613281 33.675781 L 18.822266 34.554688 C 19.149266 34.790687 19.534547 34.914062 19.935547 34.914062 L 20.617188 34.884766 L 20.771484 34.996094 L 20.775391 36.269531 C 20.637391 36.870531 20.500781 37.363312 20.425781 37.570312 L 19.646484 38.349609 C 19.517484 38.478609 18.745344 39.501828 18.652344 40.173828 C 18.633344 40.261828 18.539844 40.600734 18.339844 41.302734 L 18.488281 39.896484 C 18.516281 39.611484 18.482766 39.329734 18.384766 39.052734 L 17.828125 37.525391 C 17.714125 37.209391 17.515766 36.928844 17.259766 36.714844 L 16.640625 36.224609 L 16.435547 35.527344 L 17.28125 34.117188 L 17.613281 33.675781 z M 43.441406 39.001953 C 43.119406 39.001953 42.798625 39.080469 42.515625 39.230469 C 42.282625 39.353469 41.476141 39.773156 40.869141 40.035156 C 39.956141 40.428156 39.479328 41.412047 39.736328 42.373047 L 40.138672 43.876953 C 40.304672 44.497953 40.763281 45.001562 41.363281 45.226562 L 41.853516 45.412109 C 42.081516 45.497109 42.318734 45.539062 42.552734 45.539062 C 43.072734 45.539062 43.582938 45.335078 43.960938 44.955078 L 44.150391 44.759766 L 44.837891 45.134766 C 45.752891 45.634766 46.912656 45.336078 47.472656 44.455078 L 48.011719 43.607422 C 48.417719 42.969422 48.425297 42.140141 48.029297 41.494141 L 47.078125 39.947266 C 46.712125 39.353266 46.078812 39.001953 45.382812 39.001953 L 43.441406 39.001953 z M 45.375 40.996094 L 46.324219 42.53125 L 45.796875 43.378906 L 45.109375 43.003906 C 44.340375 42.581906 43.368094 42.721797 42.746094 43.341797 L 42.558594 43.539062 L 42.072266 43.361328 L 41.675781 41.863281 C 42.325781 41.582281 43.130406 41.165 43.441406 41 L 45.375 40.996094 z M 21 44.5 C 20.447 44.5 20 44.947 20 45.5 L 20 47.5 C 20 48.053 20.447 48.5 21 48.5 C 21.553 48.5 22 48.053 22 47.5 L 22 45.5 C 22 44.947 21.553 44.5 21 44.5 z M 26 46.5 C 25.447 46.5 25 46.947 25 47.5 L 25 49.5 C 25 50.053 25.447 50.5 26 50.5 C 26.553 50.5 27 50.053 27 49.5 L 27 47.5 C 27 46.947 26.553 46.5 26 46.5 z M 31 48.25 C 30.447 48.25 30 48.697 30 49.25 L 30 51.25 C 30 51.803 30.447 52.25 31 52.25 C 31.553 52.25 32 51.803 32 51.25 L 32 49.25 C 32 48.697 31.553 48.25 31 48.25 z M 36 50 C 35.447 50 35 50.447 35 51 L 35 53 C 35 53.553 35.447 54 36 54 C 36.553 54 37 53.553 37 53 L 37 51 C 37 50.447 36.553 50 36 50 z"/>
</svg>
