<?xml version="1.0"?>
<svg xmlns="http://www.w3.org/2000/svg" fill="darkorange" height="50px" width="50px" version="1" viewBox="0 0 24 24" enable-background="new 0 0 24 24">
    <path d="M 12 1 C 9.1277778 1 6.7208618 3.0402859 6.125 5.78125 L 8.0625 6.21875 C 8.4666382 4.3597141 10.072222 3 12 3 C 14.27619 3 16 4.7238095 16 7 L 16 8 L 6 8 C 4.9 8 4 8.9 4 10 L 4 20 C 4 21.1 4.9 22 6 22 L 18 22 C 19.1 22 20 21.1 20 20 L 20 10 C 20 8.9 19.1 8 18 8 L 18 7 C 18 3.6761905 15.32381 1 12 1 z M 6 10 L 18 10 L 18 20 L 6 20 L 6 10 z M 12 13 C 10.895431 13 10 13.895431 10 15 C 10 16.104569 10.895431 17 12 17 C 13.104569 17 14 16.104569 14 15 C 14 13.895431 13.104569 13 12 13 z"/>
</svg>
