<?xml version="1.0" encoding="utf-8"?>
<svg version="1.1" xmlns="http://www.w3.org/2000/svg" height="800px" width="800px" xmlns:xlink="http://www.w3.org/1999/xlink" x="0px" y="0px" viewBox="0 0 1000 1000" enable-background="new 0 0 1000 1000" xml:space="preserve">
<g><g transform="translate(0.000000,511.000000) scale(0.100000,-0.100000)"><path d="M1236.5,3768.2c-145.4-53.6-218.1-103.3-334.8-231.5c-133.9-145.4-187.5-277.4-199-497.5c-7.7-132-1.9-185.6,32.5-285.1c74.6-223.9,218.1-382.7,438.1-487.9c116.7-55.5,141.6-59.3,329.1-59.3c193.2,0,206.6,1.9,344.4,70.8c273.6,135.8,438.1,380.7,453.5,675.4c13.4,264-63.1,459.2-254.5,639c-156.9,147.3-281.3,199-516.6,206.6C1374.3,3804.6,1318.8,3798.8,1236.5,3768.2z M1726.3,3448.7c179.9-89.9,283.2-277.4,267.9-482.1c-9.6-132-51.7-225.8-143.5-315.7c-105.2-107.1-185.6-137.8-350.1-137.8c-162.6,0-254.5,34.4-355.9,137.8c-93.8,93.8-128.2,172.2-137.8,323.3c-9.6,151.1,23,252.6,118.6,365.4C1257.6,3496.5,1529.2,3546.3,1726.3,3448.7z"/><path d="M4718.7,3768.2c-141.6-53.6-212.4-101.4-327.2-221.9c-139.7-147.3-197.1-283.2-208.5-489.8c-19.1-355.9,149.2-635.2,470.7-788.3c118.6-57.4,143.5-61.2,331-61.2c193.3,0,206.6,1.9,344.4,70.8c273.6,135.8,438.1,380.7,453.4,675.4c13.4,265.9-67,464.9-266,650.5c-147.3,137.8-275.5,187.5-505.1,195.2C4856.5,3804.6,4801,3798.8,4718.7,3768.2z M5208.6,3448.7c183.7-91.8,283.2-273.6,267.9-486c-9.6-128.2-53.6-221.9-143.5-311.9c-105.2-107.1-185.6-137.8-350.1-137.8c-164.5,0-252.6,34.4-359.7,139.7c-179.9,181.8-187.5,482.2-15.3,686.9C4741.7,3498.4,5011.5,3546.3,5208.6,3448.7z"/><path d="M8239.2,3768.2c-137.8-51.7-208.6-97.6-311.9-206.6c-172.2-179.8-237.3-355.9-223.9-608.4c15.3-294.6,179.8-539.6,453.5-675.4c137.8-68.9,151.2-70.8,346.3-70.8s208.6,1.9,346.3,70.8c177.9,88,302.3,214.3,386.5,394.1c57.4,118.6,61.2,141.6,61.2,329.1c-1.9,164.6-9.6,221.9-45.9,311.9c-63.1,156.9-237.2,340.6-401.8,419c-111,53.6-149.2,61.2-317.6,67C8378.9,3804.6,8321.5,3796.9,8239.2,3768.2z M8729,3448.7c185.6-91.8,281.3-258.3,267.9-464.9c-9.6-145.4-51.7-248.7-143.5-336.7c-105.2-103.3-187.5-133.9-350.1-133.9c-164.5,0-244.9,30.6-350.1,137.8c-89.9,89.9-133.9,183.7-143.5,311.9c-9.6,137.8,21,246.8,97.6,348.2C8246.9,3492.7,8518.6,3553.9,8729,3448.7z"/><path d="M798.4,1870.2c-246.8-42.1-451.5-160.7-564.4-325.3c-111-160.7-130.1-267.9-130.1-738.5V398.9h1398.6h1398.6l-7.7,455.4c-5.7,390.3-11.5,464.9-44,539.6c-88,212.4-260.2,361.6-505.1,443.9c-118.6,40.2-164.5,42.1-786.4,45.9C1194.4,1885.5,853.9,1879.8,798.4,1870.2z M2329,1522c204.7-101.4,262.1-229.6,262.1-579.7V705H1500.6H410v246.8c0,273.6,24.9,376.9,111,466.8c141.6,151.2,241.1,166.5,1037,160.7l660.1-3.8L2329,1522z"/><path d="M4280.6,1870.2c-340.6-59.3-570.2-237.2-656.3-512.8c-32.5-105.2-38.3-174.1-38.3-539.6v-419h1396.7h1396.7v407.5c0,463-19.1,574-124.4,732.8c-78.4,120.5-250.6,239.2-428.6,298.5c-118.7,40.2-164.6,42.1-786.4,45.9C4676.6,1885.5,4336.1,1879.8,4280.6,1870.2z M5811.2,1522c204.7-101.4,262.1-229.6,262.1-579.7V705H4982.8H3892.2v244.9c0,281.3,17.2,361.6,99.5,455.4c143.5,164.6,237.3,179.9,1048.5,174.1l660.1-3.8L5811.2,1522z"/><path d="M7801.1,1870.2c-313.8-51.7-545.3-218.1-642.9-463c-36.4-89.9-42.1-145.4-47.8-553l-7.7-455.4h1398.6H9900v407.5c0,470.7-19.1,577.8-130.1,738.5c-116.7,170.3-319.5,283.2-581.7,327.2C9044.7,1895.1,7942.7,1893.2,7801.1,1870.2z M9182.5,1566c149.2-24.9,271.7-101.4,344.4-218.1c55.5-91.8,57.4-101.4,63.1-369.3l7.7-273.6H8505.2H7412.7v246.8c0,273.6,24.9,375,111,468.8c59.3,63.1,177.9,120.5,296.6,143.5C7935,1587,9044.7,1589,9182.5,1566z"/><path d="M8380.8-138.8c-298.5-44-556.8-266-644.8-556.8c-59.3-193.2-45.9-401.8,34.4-575.9c294.6-629.5,1167.1-629.5,1465.6,1.9c57.4,120.6,61.2,141.6,61.2,338.7c0,197.1-3.8,218.1-61.2,334.8C9075.4-267,8738.6-87.1,8380.8-138.8z M8704.2-481.3c237.3-101.4,350.1-359.7,273.6-616.1c-28.7-95.7-149.2-233.4-252.6-288.9c-111-59.3-332.9-59.3-443.9,0c-103.3,55.5-223.9,193.2-252.6,288.9C7900.6-674.5,8302.4-307.1,8704.2-481.3z"/><path d="M1267.1-211.5C1033.7-286.1,873-427.7,767.8-649.6c-57.4-120.5-61.2-141.6-61.2-338.7c0-200.9,3.8-218.1,63.1-340.6c158.8-321.4,516.6-512.8,851.4-453.5c313.8,57.4,558.7,267.9,646.7,558.7c82.3,269.8,21,564.4-162.6,774.9C1904.3-217.2,1556-119.6,1267.1-211.5z M1722.5-534.8c181.8-93.8,287-283.2,271.7-491.7c-42.1-514.7-738.5-629.5-954.7-155c-40.2,89.9-47.8,248.7-13.4,359.7c40.2,132,187.5,273.6,340.6,323.4C1445.1-471.7,1638.3-492.7,1722.5-534.8z"/><path d="M4749.4-211.5c-233.4-74.6-394.1-216.2-499.4-438.2c-57.4-120.5-61.2-141.6-61.2-338.7c0-200.9,3.8-218.1,63.1-340.6c197.1-399.9,667.8-572.1,1061.9-390.3c572.1,266,639,1050.4,120.5,1402.5C5235.3-182.8,4969.4-140.7,4749.4-211.5z M5204.7-534.8c181.8-93.8,287-283.2,271.7-491.7c-22.9-269.8-229.6-455.4-503.2-455.4c-336.7,1.9-564.4,327.2-464.9,660.1c40.2,132,187.5,273.6,340.6,323.4C4927.3-471.7,5120.5-492.7,5204.7-534.8z"/><path d="M7782-2071.2c-296.6-49.8-528.1-218.1-621.8-457.3c-38.3-95.7-44-147.3-49.7-558.7l-7.7-455.4h1398.6H9900v419c0,367.3-3.8,434.3-38.3,545.3c-57.4,183.7-164.6,308-344.4,399.9c-231.5,116.7-327.2,128.2-1023.6,126.3C8157-2054,7837.4-2061.7,7782-2071.2z M9195.9-2377.3c135.8-28.7,227.7-78.5,298.5-158.8c82.3-93.8,99.5-174.1,99.5-455.4v-244.9H8503.3H7412.7v244.9c0,133.9,9.6,275.5,21,315.7c38.3,139.7,191.3,264.1,367.4,300.4C7927.4-2352.5,9077.3-2352.5,9195.9-2377.3z"/><path d="M698.9-2138.2c-248.7-67-438.1-214.3-531.9-417.1c-53.6-116.7-53.6-118.6-59.3-570.2l-7.7-455.4h1400.6h1400.5l-7.7,455.4c-5.7,453.5-5.7,453.5-61.2,572.1c-91.8,202.8-285.1,348.2-541.5,415.2C2128.1-2096.1,855.8-2096.1,698.9-2138.2z M2334.8-2465.4c107.1-57.4,208.5-179.8,235.3-283.2c11.5-45.9,21-183.7,21-304.2v-221.9H1500.6H410v254.5c0,225.8,5.7,262.1,45.9,350.1c51.7,109.1,126.3,172.2,269.8,222c86.1,30.6,170.3,34.4,813.2,28.7C2239.1-2423.3,2258.2-2425.2,2334.8-2465.4z"/><path d="M4183-2138.2c-172.2-45.9-306.1-124.4-415.2-239.2c-156.9-172.2-168.4-216.2-177.9-748.1l-7.7-455.4h1398.6h1398.6v392.2c0,216.2-9.6,436.2-21,491.7c-61.2,285.1-273.6,484.1-595,560.6C5593.1-2096.1,4332.3-2098,4183-2138.2z M5805.5-2459.6c93.7-49.8,168.4-122.5,216.2-212.4c34.4-65.1,42.1-116.7,47.8-338.7l7.7-264H4984.7H3892.2v254.5c0,225.8,5.7,262.1,45.9,350.1c51.7,109.1,126.3,172.2,269.8,222c86.1,30.6,170.3,34.4,813.2,28.7C5679.2-2423.3,5744.3-2427.1,5805.5-2459.6z"/></g></g>
</svg>